<svg width="770" height="213" viewBox="0 0 770 213" fill="none" xmlns="http://www.w3.org/2000/svg"><path d="M70.075 203l-9.604 2.785L62.563 213h7.512v-10zM14.25 10.5V.5H.938l3.708 12.785L14.25 10.5zm20.35 0l9.615-2.75L42.14.5H34.6v10zm47.575 166.375l-9.615 2.749 9.372 32.773 9.82-32.641-9.577-2.881zM132.225 10.5V.5h-7.434l-2.142 7.12 9.576 2.88zm22.55 0l9.576-2.88L162.209.5h-7.434v10zm50.05 166.375l-9.576 2.881 9.819 32.641 9.372-32.773-9.615-2.749zM252.4 10.5V.5h-7.541l-2.074 7.25 9.615 2.75zm20.35 0l9.604 2.785L286.062.5H272.75v10zM216.925 203v10h7.512l2.092-7.215-9.604-2.785zm-23.1 0l-9.576 2.882 2.143 7.118h7.433v-10zM143.5 35.8l9.576-2.882L143.5 1.104l-9.576 31.814L143.5 35.8zM93.175 203v10h7.433l2.143-7.118L93.175 203zm-13.496-2.785L23.854 7.715l-19.208 5.57 55.825 192.5 19.208-5.57zM14.25 20.5H34.6V.5H14.25v20zm10.735-7.25L72.56 179.623l19.23-5.498L44.215 7.751l-19.23 5.498zm66.766 166.506l50.05-166.375-19.152-5.762-50.05 166.375 19.152 5.762zM132.225 20.5h22.55V.5h-22.55v20zm12.974-7.12l50.05 166.376 19.152-5.762-50.05-166.375-19.152 5.762zm69.241 166.244l47.575-166.375-19.23-5.498-47.575 166.375 19.23 5.498zM252.4 20.5h20.35V.5H252.4v20zm10.746-12.785l-55.825 192.5 19.208 5.57 55.825-192.5-19.208-5.57zM216.925 193h-23.1v20h23.1v-20zm-13.524 7.118l-50.325-167.2-19.152 5.764 50.325 167.2 19.152-5.764zm-69.477-167.2l-50.325 167.2 19.152 5.764 50.325-167.2-19.152-5.764zM93.175 193h-23.1v20h23.1v-20zm326.964 10l-9.354 3.535 2.443 6.465h6.911v-10zm-17.875-47.3l9.355-3.535-2.444-6.465h-6.911v10zm-91.3 0v-10h-6.911l-2.443 6.465 9.354 3.535zM293.089 203v10H300l2.444-6.465-9.355-3.535zm-20.35 0l-9.334-3.587L258.183 213h14.556v-10zm73.975-192.5V.5h-6.87l-2.464 6.413 9.334 3.587zm19.8 0l9.335-3.587L373.384.5h-6.87v10zM440.489 203v10h14.556l-5.221-13.587-9.335 3.587zm-122.65-65.45l-9.36-3.519-5.083 13.519h14.443v-10zm77.55 0v10h14.444l-5.084-13.519-9.36 3.519zM356.614 34.425l9.36-3.52-9.36-24.894-9.36 24.895 9.36 3.519zm72.88 165.04l-17.875-47.3-18.709 7.07 17.875 47.3 18.709-7.07zm-27.23-53.765h-91.3v20h91.3v-20zm-100.654 6.465l-17.875 47.3 18.709 7.07 17.875-47.3-18.709-7.07zM293.089 193h-20.35v20h20.35v-20zm-11.015 13.587l73.975-192.5-18.669-7.174-73.975 192.5 18.669 7.174zM346.714 20.5h19.8V.5h-19.8v20zm10.466-6.413l73.975 192.5 18.669-7.174-73.975-192.5-18.669 7.174zM440.489 193h-20.35v20h20.35v-20zm-122.65-45.45h77.55v-20h-77.55v20zm86.91-13.519L365.974 30.905l-18.72 7.04 38.775 103.124 18.72-7.038zM347.254 30.905l-38.775 103.126 18.72 7.038 38.775-103.125-18.72-7.039zM516.907 203l-9.383 3.458 2.411 6.542h6.972v-10zm-70.95-192.5V.5h-14.343l4.96 13.458 9.383-3.458zm20.9 0l9.411-3.38L473.891.5h-7.034v10zm59.95 166.925l-9.411 3.38 9.411 26.205 9.412-26.205-9.412-3.38zM586.757 10.5V.5h-7.034l-2.377 6.62 9.411 3.38zm20.9 0l9.383 3.458L622 .5h-14.343v10zM536.707 203v10h6.972l2.411-6.542-9.383-3.458zm-10.417-3.458l-70.95-192.5-18.766 6.916 70.95 192.5 18.766-6.916zM445.957 20.5h20.9V.5h-20.9v20zm11.489-6.62l59.95 166.925 18.823-6.76L476.268 7.12l-18.822 6.76zm78.773 166.925L596.168 13.88l-18.822-6.76-59.95 166.925 18.823 6.76zM586.757 20.5h20.9V.5h-20.9v20zm11.517-13.458l-70.95 192.5 18.766 6.916 70.95-192.5-18.766-6.916zM536.707 193h-19.8v20h19.8v-20zm128.81-8.15h-10v10h10v-10zm93.5 0h10v-10h-10v10zm0 18.15v10h10v-10h-10zm-112.75 0h-10v10h10v-10zm0-192.5V.5h-10v10h10zm111.375 0h10V.5h-10v10zm0 18.15v10h10v-10h-10zm-92.125 0v-10h-10v10h10zm0 68.2h-10v10h10v-10zm85.25 0h10v-10h-10v10zm0 18.15v10h10v-10h-10zm-85.25 0v-10h-10v10h10zm0 79.85h93.5v-20h-93.5v20zm83.5-10V203h20v-18.15h-20zm10 8.15h-112.75v20h112.75v-20zm-102.75 10V10.5h-20V203h20zm-10-182.5h111.375V.5H646.267v20zm101.375-10v18.15h20V10.5h-20zm10 8.15h-92.125v20h92.125v-20zm-102.125 10v68.2h20v-68.2h-20zm10 78.2h85.25v-20h-85.25v20zm75.25-10V115h20V96.85h-20zm10 8.15h-85.25v20h85.25v-20zm-95.25 10v69.85h20V115h-20z" fill="url(#paint0_linear)"/><defs><linearGradient id="paint0_linear" x1="-1" y1="109" x2="777" y2="109" gradientUnits="userSpaceOnUse"><stop offset=".281" stop-color="#0FF"/><stop offset=".922" stop-color="#F0F"/></linearGradient></defs></svg>